<svg version="1.2" xmlns="http://www.w3.org/2000/svg" viewBox="0 0 37 28" width="37" height="28">
	<title>kritbi</title>
	<defs>
		<clipPath clipPathUnits="userSpaceOnUse" id="cp1">
			<path d="m0 0h130v72h-130z"/>
		</clipPath>
	</defs>
	<style>
		.s0 { fill: #3fb6a3 } 
		.s1 { fill: #001f33 } 
	</style>
	<g id="Clip-Path" clip-path="url(#cp1)">
		<g>
			<path class="s0" d="m20.1 0l-6.4 10.9h13.7l6.4-10.9z"/>
			<path class="s1" d="m20.1 21.7l-6.4-10.8h13.7l6.4 10.8z"/>
			<path class="s1" d="m13.7 0h-13.7v1.4h13.7z"/>
			<path class="s1" d="m13.7 20.4h-13.7v1.3h13.7z"/>
			<path class="s1" d="m51.8 5.1h-3.5l-5.8 6.2v-6.2h-2.7v11h1.7l3.4-3.6 3.7 3.6h3.6l-5.6-5.4z"/>
			<path class="s1" d="m66.3 6.2q-0.6-0.5-1.4-0.8-0.9-0.3-2-0.3h-7.6v11h2.7v-3.4h5.2q1 0 1.7-0.2 0.7-0.2 1.2-0.6 0.5-0.3 0.8-0.8 0.3-0.5 0.4-1.1 0.1-0.5 0.1-1.1 0-0.8-0.2-1.5-0.3-0.7-0.9-1.2zm-1.9 3.7q-0.4 0.3-1.2 0.3h-5.2v-2.6h4.9q0.8 0 1.3 0.3 0.5 0.4 0.5 1 0 0.7-0.3 1z"/>
			<path class="s1" d="m73.2 11.9v-6.8h-2.7v11h1.7l8-6.8v6.8h2.7v-11h-1.7z"/>
			<path class="s1" d="m128.3 5.1l-8 6.8v-6.8h-2.7v11h1.7l8-6.8v6.8h2.7v-11z"/>
			<path class="s1" d="m86 7.6h5.1v8.5h2.7v-8.5h5.2v-2.5h-13z"/>
			<path class="s1" d="m114.2 12.6c-0.2-1.7-2.1-3.1-4.4-3.1q-0.2 0-0.4 0-0.2 0-0.4 0h-4.1v-1.9h8.1v-2.5h-10.7v11h7.3q0.1 0 0.1 0 0 0 0.1 0 0.1 0 0.3 0 0 0 0.1 0 0 0 0.1 0 1.7-0.1 2.7-0.9 1.1-0.7 1.2-2.2 0-0.1 0-0.2 0 0 0 0 0-0.1 0-0.1 0-0.1 0-0.1zm-9.3-0.8h4.7q0.9 0 1.4 0.2 0.4 0.2 0.4 0.7 0 0.3-0.1 0.4 0 0.2-0.2 0.3-0.1 0.1-0.3 0.2-0.3 0-0.5 0-0.3 0.1-0.7 0.1h-4.7z"/>
			<path class="s1" d="m43.7 27.7l-2.2-2.7h-0.8v2.7h-0.7v-6h0.7v2.6h0.8l2-2.6h0.9l-2.2 2.9 2.4 3.1z"/>
			<path class="s1" d="m48.1 21.7q0.8 0 1.4 0.6 0.6 0.5 0.6 1.3 0 0.9-0.6 1.4-0.6 0.6-1.4 0.6h-1.4v2.1h-0.8v-6h2.2zm-0.1 3.1q0.6 0 0.9-0.3 0.4-0.3 0.4-0.9 0-0.5-0.4-0.8-0.3-0.4-0.9-0.4h-1.3v2.4h1.3z"/>
			<path class="s1" d="m55.4 27.7l-0.6-1.4h-2.9l-0.6 1.4h-0.8l2.5-6h0.7l2.5 6zm-2-5l-1.2 2.9h2.3z"/>
			<path class="s1" d="m60.1 27.8q-1.3 0-2.2-0.9-0.9-0.8-0.9-2.2 0-1.3 0.9-2.2 0.9-0.9 2.2-0.9 0.7 0 1.3 0.3 0.6 0.2 1 0.7 0.4 0.5 0.6 1.1h-0.8q-0.2-0.6-0.8-1-0.5-0.3-1.3-0.3-1 0-1.6 0.6-0.7 0.7-0.7 1.7 0 1.1 0.7 1.7 0.6 0.7 1.6 0.7 0.8 0 1.4-0.4 0.5-0.4 0.8-1.1h0.7q-0.2 1-1 1.6-0.8 0.6-1.9 0.6z"/>
			<path class="s1" d="m68.5 21.7h0.7v6h-0.7v-2.7h-3.2v2.7h-0.7v-6h0.7v2.6h3.2z"/>
			<path class="s1" d="m76.3 26.9q-0.9 0.9-2.2 0.9-1.4 0-2.3-0.9-0.9-0.8-0.9-2.2 0-1.3 0.9-2.2 0.9-0.9 2.3-0.9 1.3 0 2.2 0.9 0.9 0.9 0.9 2.2 0 1.4-0.9 2.2zm-3.9-0.5q0.6 0.7 1.7 0.7 1 0 1.7-0.7 0.7-0.7 0.7-1.7 0-1-0.7-1.7-0.7-0.7-1.7-0.7-1.1 0-1.7 0.7-0.7 0.7-0.7 1.7 0 1 0.7 1.7z"/>
			<path class="s1" d="m80.5 21.7h2.4v6h-0.8v-2.3h-1.3l-1.4 2.3h-0.9l1.5-2.4q-0.5-0.1-0.8-0.4-0.3-0.2-0.5-0.6-0.1-0.3-0.1-0.8 0-0.7 0.5-1.3 0.6-0.5 1.4-0.5zm0.1 3h1.5v-2.3h-1.5q-0.4 0-0.7 0.2-0.3 0.1-0.4 0.4-0.2 0.2-0.2 0.5 0 0.4 0.2 0.6 0.1 0.3 0.4 0.4 0.3 0.2 0.7 0.2z"/>
			<path class="s1" d="m87.1 21.7q0.9 0 1.5 0.6 0.5 0.5 0.5 1.3 0 0.9-0.5 1.4-0.6 0.6-1.5 0.6h-1.4v2.1h-0.7v-6h2.1zm0 3.1q0.5 0 0.9-0.3 0.4-0.3 0.4-0.9 0-0.5-0.4-0.8-0.4-0.4-0.9-0.4h-1.4v2.4h1.4z"/>
			<path class="s1" d="m93.4 27.8q-1.4 0-2.3-0.9-0.8-0.8-0.8-2.2 0-1.3 0.8-2.2 0.9-0.9 2.3-0.9 0.6 0 1.2 0.3 0.6 0.2 1 0.7 0.5 0.5 0.6 1.1h-0.8q-0.2-0.6-0.7-1-0.6-0.3-1.3-0.3-1.1 0-1.7 0.6-0.7 0.7-0.7 1.7 0 1.1 0.7 1.7 0.6 0.7 1.7 0.7 0.7 0 1.3-0.4 0.5-0.4 0.8-1.1h0.8q-0.3 1-1.1 1.6-0.8 0.6-1.8 0.6z"/>
			<path class="s1" d="m101.5 27.7l-2.1-2.7h-0.8v2.7h-0.8v-6h0.8v2.6h0.8l1.9-2.6h1l-2.2 2.9 2.4 3.1z"/>
			<path class="s1" d="m107.9 21.7h0.6v6h-0.8v-4.6l-3.4 4.6h-0.6v-6h0.8v4.6l3.4-4.6z"/>
			<path class="s1" d="m114.7 21.7h0.6v6h-0.8v-4.6l-3.4 4.6h-0.5v-6h0.7v4.6l3.4-4.6zm-3.1-1v-0.5h2.5v0.5z"/>
			<path class="s1" d="m42.2 32.8q0.8 0 1.4 0.5 0.6 0.6 0.6 1.4 0 0.8-0.6 1.4-0.6 0.5-1.4 0.5h-1.5v2.2h-0.7v-6h2.2zm-0.1 3.1q0.6 0 0.9-0.4 0.4-0.3 0.4-0.8 0-0.5-0.4-0.9-0.3-0.3-0.9-0.3h-1.4v2.4h1.4z"/>
			<path class="s1" d="m46 38h2.8v0.8h-3.5v-6h3.4v0.7h-2.7v1.8h2.5v0.7h-2.5z"/>
			<path class="s1" d="m53.3 32.8v0.7h-2.5v5.3h-0.8v-6z"/>
			<path class="s1" d="m58.5 32.8h0.5v6h-0.7v-4.6l-3.5 4.6h-0.5v-6h0.7v4.5l3.5-4.5z"/>
			<path class="s1" d="m65.7 38q-0.9 0.9-2.3 0.9-1.3 0-2.2-0.9-0.9-0.9-0.9-2.2 0-1.4 0.9-2.3 0.9-0.9 2.2-0.9 1.4 0 2.3 0.9 0.9 0.9 0.9 2.3 0 1.3-0.9 2.2zm-4-0.5q0.7 0.6 1.7 0.6 1.1 0 1.7-0.6 0.7-0.7 0.7-1.7 0-1.1-0.7-1.7-0.6-0.7-1.7-0.7-1 0-1.7 0.7-0.7 0.6-0.7 1.7 0 1 0.7 1.7z"/>
			<path class="s1" d="m71.7 32.8h0.8v6h-0.8v-2.8h-3.1v2.8h-0.8v-6h0.8v2.5h3.1z"/>
			<path class="s1" d="m78.4 38.8l-0.6-1.5h-2.9l-0.6 1.5h-0.8l2.4-6h0.7l2.6 6zm-2.1-5l-1.1 2.8h2.3z"/>
			<path class="s1" d="m81.2 32.8h3.7v6h-0.8v-5.3h-2.3l-0.2 3.4q-0.2 1.9-1.9 1.9h-0.2v-0.8h0.2q1 0 1.1-1.1z"/>
			<path class="s1" d="m88.8 34.9q0.5 0 1 0.2 0.5 0.3 0.7 0.7 0.3 0.5 0.3 1 0 0.9-0.6 1.4-0.6 0.6-1.4 0.6h-2.3v-6.1h0.8v2.2h1.5zm-0.1 3.2q0.6 0 0.9-0.4 0.4-0.3 0.4-0.9 0-0.5-0.4-0.9-0.3-0.3-0.9-0.3h-1.4v2.5h1.4z"/>
			<path class="s1" d="m95.8 32.8h0.7v6h-0.7v-2.8h-3.2v2.8h-0.7v-6h0.7v2.5h3.2z"/>
			<path class="s1" d="m100.4 34.9q0.6 0 1.1 0.2 0.4 0.3 0.7 0.7 0.2 0.5 0.2 1 0 0.9-0.5 1.4-0.6 0.6-1.5 0.6h-2.2v-6.1h0.8v2.2h1.4zm0 3.2q0.5 0 0.9-0.4 0.4-0.3 0.4-0.9 0-0.5-0.4-0.9-0.4-0.3-0.9-0.3h-1.4v2.5h1.4zm3-5.4h0.7v6.1h-0.7z"/>
			<path class="s1" d="m109.9 32.8h0.6v6h-0.8v-4.6l-3.4 4.6h-0.5v-6h0.7v4.5l3.4-4.5zm-3-1v-0.6h2.4v0.6z"/>
			<path class="s1" d="m44.2 43.8h0.5v6h-0.7v-4.6l-3.5 4.6h-0.5v-6h0.7v4.5l3.5-4.5z"/>
			<path class="s1" d="m50.4 43.8h0.8v6h-0.8v-2.7h-3.1v2.7h-0.8v-6h0.8v2.6h3.1z"/>
			<path class="s1" d="m56.9 43.8h0.8v6h-0.8v-2.7h-3.1v2.7h-0.8v-6h0.8v2.6h3.1z"/>
			<path class="s1" d="m64.5 49q-0.9 0.9-2.3 0.9-1.3 0-2.2-0.9-0.9-0.9-0.9-2.2 0-1.3 0.9-2.2 0.9-0.9 2.2-0.9 1.4 0 2.3 0.9 0.9 0.9 0.9 2.2 0 1.3-0.9 2.2zm-4-0.5q0.7 0.7 1.7 0.7 1.1 0 1.8-0.7 0.6-0.7 0.6-1.7 0-1-0.6-1.7-0.7-0.7-1.8-0.7-1 0-1.7 0.7-0.7 0.7-0.7 1.7 0 1 0.7 1.7z"/>
			<path class="s1" d="m70.2 46.7q0.4 0.2 0.6 0.6 0.3 0.4 0.3 0.9 0 0.7-0.5 1.1-0.6 0.5-1.4 0.5h-2.4v-6h2.4q0.8 0 1.2 0.4 0.5 0.5 0.5 1.1 0 0.4-0.2 0.8-0.2 0.4-0.5 0.6zm0-1.3q0-0.2-0.2-0.4-0.1-0.2-0.3-0.4-0.2-0.1-0.5-0.1h-1.6v1.8h1.6q0.4 0 0.7-0.2 0.2-0.3 0.2-0.7zm-0.9 3.7q0.5 0 0.8-0.3 0.3-0.3 0.3-0.7 0-0.5-0.3-0.8-0.3-0.2-0.8-0.2h-1.6v2h1.6z"/>
			<path class="s1" d="m76.7 49.8l-0.6-1.4h-2.9l-0.6 1.4h-0.8l2.5-6h0.7l2.5 6zm-2-5l-1.2 2.9h2.3z"/>
			<path class="s1" d="m83 49.1h0.7v1.9h-0.7v-1.2h-4.3v-6h0.7v5.3h2.9v-5.3h0.7v5.3z"/>
			<path class="s1" d="m89.2 43.8h0.6v6h-0.8v-4.6l-3.4 4.6h-0.6v-6h0.8v4.5l3.4-4.5z"/>
			<path class="s1" d="m96.6 49q-0.9 0.9-2.3 0.9-1.3 0-2.2-0.9-0.9-0.9-0.9-2.2 0-1.3 0.9-2.2 0.9-0.9 2.2-0.9 1.4 0 2.3 0.9 0.9 0.9 0.9 2.2 0 1.3-0.9 2.2zm-4-0.5q0.7 0.7 1.7 0.7 1.1 0 1.8-0.7 0.6-0.7 0.6-1.7 0-1-0.6-1.7-0.7-0.7-1.8-0.7-1 0-1.7 0.7-0.6 0.7-0.6 1.7 0 1 0.6 1.7z"/>
			<path class="s1" d="m102.8 43.8h0.8v6h-0.8v-2.7h-3.1v2.7h-0.8v-6h0.8v2.6h3.1z"/>
			<path class="s1" d="m109.3 43.8h0.8v6h-0.8v-2.7h-3.1v2.7h-0.8v-6h0.8v2.6h3.1z"/>
			<path class="s1" d="m116.9 49q-0.9 0.9-2.3 0.9-1.3 0-2.2-0.9-0.9-0.9-0.9-2.2 0-1.3 0.9-2.2 0.9-0.9 2.2-0.9 1.4 0 2.3 0.9 0.9 0.9 0.9 2.2 0 1.3-0.9 2.2zm-4-0.5q0.7 0.7 1.7 0.7 1.1 0 1.8-0.7 0.6-0.7 0.6-1.7 0-1-0.6-1.7-0.7-0.7-1.8-0.7-1 0-1.7 0.7-0.6 0.7-0.6 1.7 0 1 0.6 1.7z"/>
			<path class="s1" d="m119 47.8v-0.7h2.7v0.7z"/>
			<path class="s1" d="m43.8 54.8v0.7h-1.9v5.4h-0.7v-5.4h-1.9v-0.7z"/>
			<path class="s1" d="m45.8 60.1h2.7v0.8h-3.5v-6.1h3.4v0.8h-2.6v1.8h2.4v0.7h-2.4z"/>
			<path class="s1" d="m54.3 60.9h-0.9l-1.6-2.6-1.7 2.6h-0.9l2.1-3.2-1.9-2.9h0.8l1.6 2.3 1.5-2.3h0.8l-1.9 2.9 2.1 3.1z"/>
			<path class="s1" d="m59.3 54.8h0.7v6.1h-0.7v-2.8h-3.2v2.8h-0.7v-6.1h0.7v2.6h3.2z"/>
			<path class="s1" d="m66.9 60.1q-0.9 0.9-2.2 0.9-1.4 0-2.3-0.9-0.9-0.9-0.9-2.2 0-1.4 0.9-2.3 0.9-0.9 2.3-0.9 1.3 0 2.2 0.9 0.9 0.9 0.9 2.3 0 1.3-0.9 2.2zm-4-0.6q0.7 0.7 1.8 0.7 1 0 1.7-0.7 0.7-0.6 0.7-1.7 0-1-0.7-1.6-0.7-0.7-1.7-0.7-1.1 0-1.8 0.7-0.6 0.6-0.6 1.6 0 1.1 0.6 1.7z"/>
			<path class="s1" d="m70 54.8h3.8v6.1h-0.8v-5.4h-2.3l-0.3 3.5q-0.1 1.9-1.8 1.9h-0.2v-0.8h0.2q1 0 1.1-1.1z"/>
			<path class="s1" d="m80.7 60.1q-0.9 0.9-2.3 0.9-1.4 0-2.3-0.9-0.9-0.9-0.9-2.2 0-1.4 0.9-2.3 0.9-0.9 2.3-0.9 1.4 0 2.3 0.9 0.9 0.9 0.9 2.3 0 1.3-0.9 2.2zm-4-0.6q0.7 0.7 1.7 0.7 1 0 1.7-0.7 0.7-0.6 0.7-1.7 0-1-0.7-1.6-0.7-0.7-1.7-0.7-1 0-1.7 0.7-0.7 0.6-0.7 1.6 0 1.1 0.7 1.7z"/>
			<path class="s1" d="m86.3 54.8v0.7h-2.5v5.4h-0.8v-6.1z"/>
			<path class="s1" d="m91.7 54.8h0.5v6.1h-0.7v-4.6l-3.5 4.6h-0.5v-6.1h0.7v4.6l3.5-4.6z"/>
			<path class="s1" d="m97.2 54.8h0.7v6.1h-0.7v-2.4q-0.7 0.3-1.4 0.3-1 0-1.5-0.6-0.6-0.6-0.6-1.6v-1.8h0.7v1.8q0 0.7 0.4 1 0.4 0.4 1.1 0.4 0.5 0 1.3-0.3v-2.9z"/>
			<path class="s1" d="m100.6 60.1h2.7v0.8h-3.5v-6.1h3.5v0.8h-2.7v1.8h2.4v0.7h-2.4z"/>
			<path class="s1" d="m107.4 60.9q-1.4 0-2.2-0.8-0.9-0.9-0.9-2.2 0-1.4 0.9-2.3 0.8-0.9 2.2-0.8 0.7 0 1.3 0.2 0.6 0.3 1 0.8 0.4 0.4 0.5 1.1h-0.7q-0.3-0.7-0.8-1-0.6-0.4-1.3-0.4-1 0-1.7 0.7-0.6 0.6-0.6 1.7 0 1 0.6 1.6 0.7 0.7 1.7 0.7 0.7 0 1.3-0.4 0.6-0.4 0.8-1.1h0.8q-0.3 1.1-1.1 1.7-0.7 0.6-1.8 0.6z"/>
			<path class="s1" d="m115.3 60.9l-2.1-2.8h-0.8v2.8h-0.8v-6.1h0.8v2.6h0.8l1.9-2.6h1l-2.2 2.9 2.4 3.2z"/>
			<path class="s1" d="m121.5 54.8h0.6v6.1h-0.8v-4.6l-3.5 4.6h-0.5v-6.1h0.8v4.6l3.4-4.6z"/>
			<path class="s1" d="m128.1 54.8h0.6v6.1h-0.8v-4.6l-3.5 4.6h-0.5v-6.1h0.8v4.6l3.4-4.6zm-3.1-0.9v-0.6h2.5v0.6z"/>
			<path class="s1" d="m42.2 68.2q0.8 0 1.4 0.5 0.5 0.5 0.5 1.3 0 0.8-0.5 1.4-0.6 0.5-1.4 0.5h-2.2v-6h3.7v0.7h-3v1.6h1.5zm-0.1 3q0.6 0 0.9-0.4 0.3-0.3 0.3-0.8 0-0.5-0.3-0.8-0.3-0.3-0.9-0.3h-1.4v2.3h1.4z"/>
			<path class="s1" d="m49.5 65.9h0.6v6h-0.8v-4.6l-3.5 4.6h-0.5v-6h0.8v4.5l3.4-4.5z"/>
			<path class="s1" d="m54.5 68.7q0.4 0.2 0.7 0.6 0.2 0.4 0.2 0.9 0 0.8-0.6 1.3-0.6 0.5-1.5 0.5c-0.6 0-1-0.2-1.4-0.5q-0.6-0.5-0.6-1.3h0.7q0.1 0.5 0.4 0.8 0.4 0.3 0.9 0.3 0.4 0 0.7-0.2 0.3-0.1 0.5-0.3 0.2-0.3 0.2-0.6 0-0.5-0.4-0.8-0.3-0.3-0.8-0.3h-0.7v-0.7h0.7q0.5 0 0.8-0.3 0.2-0.2 0.2-0.6 0-0.5-0.3-0.8-0.3-0.2-0.9-0.2-0.4 0-0.8 0.2-0.3 0.3-0.4 0.7h-0.7q0.1-0.7 0.6-1.1 0.6-0.5 1.3-0.5 0.9 0 1.4 0.5 0.6 0.4 0.6 1.1 0 0.3-0.1 0.6-0.1 0.2-0.2 0.4-0.2 0.2-0.4 0.3z"/>
			<path class="s1" d="m60.7 65.9h0.7v6h-0.7v-2.7h-3.2v2.7h-0.7v-6h0.7v2.5h3.2z"/>
			<path class="s1" d="m63.9 71.2h2.7v0.7h-3.5v-6h3.4v0.7h-2.6v1.9h2.4v0.7h-2.4z"/>
			<path class="s1" d="m70.5 72q-1.3 0-2.2-0.9-0.9-0.9-0.9-2.2 0-1.4 0.9-2.2 0.9-0.9 2.2-0.9 0.7 0 1.3 0.3 0.6 0.2 1 0.7 0.4 0.5 0.6 1.1h-0.8q-0.2-0.6-0.8-1-0.6-0.4-1.3-0.4-1 0-1.7 0.7-0.6 0.7-0.6 1.7 0 1 0.6 1.7 0.7 0.7 1.7 0.7 0.8 0 1.3-0.4 0.6-0.4 0.8-1.1h0.8q-0.3 1-1 1.6-0.8 0.6-1.9 0.6z"/>
			<path class="s1" d="m74.3 69.9v-0.8h2.8v0.8z"/>
			<path class="s1" d="m82.7 65.9h0.6v6h-0.8v-4.6l-3.4 4.6h-0.5v-6h0.7v4.5l3.4-4.5z"/>
			<path class="s1" d="m88.9 65.9h0.7v6h-0.7v-2.7h-3.2v2.7h-0.7v-6h0.7v2.5h3.2z"/>
			<path class="s1" d="m95 71.9l-2.1-2.8h-0.8v2.8h-0.8v-6h0.8v2.5h0.8l1.9-2.5h1l-2.2 2.9 2.4 3.1z"/>
			<path class="s1" d="m100.4 65.9h0.8l-1.9 4.1q-0.5 1.1-0.9 1.5-0.5 0.4-1.3 0.4h-0.3v-0.7h0.3q0.5 0 0.8-0.2 0.2-0.2 0.5-0.8l-2.3-4.3h0.9l1.8 3.4 1.6-3.4z"/>
			<path class="s1" d="m104.3 68.2q0.9 0 1.4 0.5 0.6 0.5 0.6 1.3 0 0.8-0.6 1.4-0.5 0.5-1.4 0.5h-2.2v-6h3.7v0.7h-2.9v1.6h1.4zm0 3q0.5 0 0.8-0.4 0.4-0.3 0.4-0.8 0-0.5-0.4-0.8-0.3-0.3-0.8-0.3h-1.4v2.3h1.4z"/>
			<path class="s1" d="m111.5 71.9l-0.6-1.4h-2.9l-0.6 1.4h-0.8l2.5-6h0.7l2.6 6zm-2.1-5l-1.2 2.9h2.4z"/>
			<path class="s1" d="m116.6 65.9v0.7h-1.8v5.3h-0.8v-5.3h-1.8v-0.7z"/>
			<path class="s1" d="m122.4 71.1q-0.9 0.9-2.2 0.9-1.4 0-2.3-0.9-0.9-0.9-0.9-2.2 0-1.3 0.9-2.2 0.9-0.9 2.3-0.9 1.3 0 2.2 0.9 0.9 0.9 0.9 2.2 0 1.3-0.9 2.2zm-4-0.5q0.7 0.7 1.8 0.7 1 0 1.7-0.7 0.6-0.7 0.6-1.7 0-1-0.6-1.7-0.7-0.7-1.7-0.7-1.1 0-1.8 0.7-0.6 0.7-0.6 1.7 0 1 0.6 1.7z"/>
			<path class="s1" d="m126.8 65.9q0.8 0 1.4 0.5 0.6 0.6 0.6 1.4 0 0.8-0.6 1.4-0.6 0.5-1.4 0.5h-1.4v2.2h-0.8v-6h2.2zm-0.1 3.1q0.6 0 1-0.3 0.3-0.4 0.3-0.9 0-0.5-0.3-0.8-0.4-0.4-1-0.4h-1.3v2.4h1.3z"/>
		</g>
	</g>
</svg>