<svg version="1.2" xmlns="http://www.w3.org/2000/svg" viewBox="0 0 42 34" width="42" height="34">
	<title>minista</title>
	<style>
		.s0 { fill: #17cde5 } 
		.s1 { fill: #ff66e2 } 
		.s2 { fill: #ffffff } 
	</style>
	<path class="s0" d="m16.4 21.7c0.1-0.1 0.1-0.4 0.1-0.6h-9.9c-1 0-1.9-0.9-1.9-2v-12.4c0-1 0.9-1.9 1.9-1.9h15.3c1 0 1.4 0.8 0.9 1.7l-2.7 4.5h4.5l1.5-2.6c1-1.6 1-3.5 0.2-5-0.9-1.5-2.5-2.4-4.4-2.4h-15.3c-3.2 0-5.7 2.6-5.7 5.7v12.4c0 3.2 2.5 5.8 5.7 5.8h8z"/>
	<path class="s1" d="m31.4 9.1h-15.3c-1.8 0-3.5 0.9-4.3 2.4-0.9 1.5-0.8 3.4 0.1 5l2.7 4.6-2.7 4.5c-0.9 1.6-1 3.5-0.1 5 0.8 1.5 2.5 2.4 4.4 2.4h15.2c3.2 0 5.8-2.6 5.8-5.7v-12.4c0-3.2-2.6-5.8-5.8-5.8zm0 3.9c1.1 0 1.9 0.8 1.9 1.9v12.4c0 1-0.8 1.9-1.9 1.9h-15.3c-1 0-1.4-0.7-0.9-1.6l2.8-4.9c0.6-0.9 0.6-2.4 0-3.3l-2.8-4.8c-0.5-0.9-0.1-1.6 0.9-1.6 0 0 15.3 0 15.3 0z"/>
	<g>
		<path fill-rule="evenodd" class="s2" d="m72.1 12.7h2.7c0.3 0 0.6 0.3 0.6 0.6v13.1c0 0.4-0.3 0.6-0.6 0.6h-2.7c-0.3 0-0.5-0.2-0.5-0.6v-13.1c0-0.3 0.2-0.6 0.5-0.6z"/>
		<path fill-rule="evenodd" class="s2" d="m72.1 7h2.7c0.3 0 0.6 0.2 0.6 0.6v2.1c0 0.3-0.3 0.6-0.6 0.6h-2.7c-0.3 0-0.5-0.3-0.5-0.6v-2.1c0-0.4 0.2-0.6 0.5-0.6z"/>
		<path fill-rule="evenodd" class="s2" d="m98.9 12.7h2.6c0.4 0 0.6 0.3 0.6 0.6v13.1c0 0.4-0.2 0.6-0.6 0.6h-2.6c-0.3 0-0.6-0.2-0.6-0.6v-13.1c0-0.3 0.3-0.6 0.6-0.6z"/>
		<path fill-rule="evenodd" class="s2" d="m98.9 7h2.6c0.4 0 0.6 0.2 0.6 0.6v2.1c0 0.3-0.2 0.6-0.6 0.6h-2.6c-0.3 0-0.6-0.3-0.6-0.6v-2.1c0-0.4 0.3-0.6 0.6-0.6z"/>
		<path class="s2" d="m46.8 12.7c-0.3 0-0.6 0.3-0.6 0.6v13.1c0 0.4 0.3 0.6 0.6 0.6h2.7c0.3 0 0.6-0.2 0.6-0.6v-9.9c0-0.2 0.2-0.5 0.5-0.5h3.8c0.2 0 0.5 0.3 0.5 0.5v9.9c0 0.4 0.2 0.6 0.6 0.6h2.6c0.3 0 0.6-0.2 0.6-0.6v-9.9c0-0.2 0.2-0.5 0.5-0.5h3.8c0.2 0 0.5 0.3 0.5 0.5v9.9c0 0.4 0.2 0.6 0.6 0.6h2.6c0.3 0 0.6-0.2 0.6-0.6v-13.1c0-0.3-0.3-0.6-0.6-0.6h-19.8z"/>
		<path class="s2" d="m80.3 12.7c-0.4 0-0.6 0.3-0.6 0.6v13.1c0 0.4 0.2 0.6 0.6 0.6h2.6c0.3 0 0.6-0.2 0.6-0.6v-9.9c0-0.2 0.2-0.5 0.5-0.5h5.7c0.3 0 0.5 0.3 0.5 0.5v9.9c0 0.4 0.3 0.6 0.6 0.6h2.6c0.3 0 0.6-0.2 0.6-0.6v-13.1c0-0.3-0.3-0.6-0.6-0.6h-13.1z"/>
		<path class="s2" d="m120.8 15.4v-2.1c0-0.3-0.3-0.6-0.6-0.6h-13.2c-0.3 0-0.6 0.3-0.6 0.6v7.6c0 0.4 0.3 0.6 0.6 0.6h9.5c0.2 0 0.4 0.3 0.4 0.5v1.2c0 0.3-0.2 0.5-0.4 0.5h-9.5c-0.3 0-0.6 0.3-0.6 0.6v2.1c0 0.4 0.3 0.6 0.6 0.6h13.2c0.3 0 0.6-0.2 0.6-0.6v-7.6c0-0.3-0.3-0.6-0.6-0.6h-9.5c-0.2 0-0.5-0.2-0.5-0.5v-1.2c0-0.2 0.2-0.5 0.5-0.5h9.5c0.3 0 0.6-0.2 0.6-0.6z"/>
		<path class="s2" d="m137.9 15.4v-2.1c0-0.3-0.2-0.6-0.6-0.6h-5.6c-0.2 0-0.5-0.2-0.5-0.5v-3.7c0-0.3-0.2-0.6-0.6-0.6h-2.6c-0.3 0-0.6 0.3-0.6 0.6v3.7c0 0.3-0.2 0.5-0.5 0.5h-2.7c-0.3 0-0.6 0.3-0.6 0.6v2.1c0 0.4 0.3 0.7 0.6 0.7h2.7c0.3 0 0.5 0.2 0.5 0.4v9.9c0 0.4 0.3 0.6 0.6 0.6h8.4c0.3 0 0.6-0.2 0.6-0.6v-2.1c0-0.3-0.3-0.6-0.6-0.6h-4.7c-0.2 0-0.5-0.2-0.5-0.5v-6.7c0-0.2 0.3-0.5 0.5-0.5h5.6c0.4 0 0.6-0.2 0.6-0.6z"/>
		<path class="s2" d="m141.4 12.7c-0.3 0-0.6 0.3-0.6 0.6v2.1c0 0.4 0.3 0.7 0.6 0.7h9.4c0.3 0 0.5 0.2 0.5 0.4v1.2c0 0.3-0.2 0.5-0.5 0.5h-9.4c-0.3 0-0.6 0.3-0.6 0.6v7.6c0 0.4 0.3 0.6 0.6 0.6h13.1c0.4 0 0.6-0.2 0.6-0.6v-13.1c0-0.3-0.2-0.6-0.6-0.6h-13.1zm9.4 11h-5.7c-0.3 0-0.5-0.2-0.5-0.5v-1.2c0-0.2 0.2-0.4 0.5-0.4h5.7c0.3 0 0.5 0.2 0.5 0.4v1.2c0 0.3-0.2 0.5-0.5 0.5z"/>
	</g>
</svg>