<svg version="1.1" xmlns="http://www.w3.org/2000/svg" xmlns:xlink="http://www.w3.org/1999/xlink" width="640.000000pt" height="640.000000pt" viewBox="0,0,256,256"><g fill="#ee3a43" fill-rule="nonzero" stroke="none" stroke-width="1" stroke-linecap="butt" stroke-linejoin="miter" stroke-miterlimit="10" stroke-dasharray="" stroke-dashoffset="0" font-family="none" font-weight="none" font-size="none" text-anchor="none" style="mix-blend-mode: normal"><g transform="translate(0.09984,-0.16726) scale(0.4,0.4)"><g transform="translate(0,640) scale(0.1,-0.1)"><path d="M2953,6379c-359,-26 -774,-136 -1111,-295c-513,-242 -969,-634 -1294,-1114c-249,-369 -428,-821 -497,-1260c-137,-864 72,-1724 588,-2415c505,-678 1254,-1131 2071,-1254c868,-130 1716,83 2415,608c607,455 1044,1141 1199,1880c53,250 61,335 61,666c0,331 -8,420 -61,665c-40,187 -122,447 -184,585c-72,159 -95,207 -141,288c-45,81 -165,273 -179,287c-3,3 -20,28 -39,55c-173,251 -498,565 -788,762c-605,408 -1307,595 -2040,542zM3040,5476c148,-51 243,-189 244,-351c0,-70 -4,-90 -31,-148c-38,-81 -106,-149 -182,-185c-47,-21 -71,-26 -151,-26c-87,-1 -101,2 -160,30c-78,37 -141,99 -178,174c-24,49 -27,66 -27,160c0,95 3,110 28,160c87,170 279,248 457,186zM3002,4370c68,-19 130,-71 166,-139l32,-63v-308v-309l328,-3c320,-3 328,-3 375,-27c93,-45 147,-124 147,-216c0,-66 -27,-122 -83,-171c-78,-69 -109,-74 -461,-74h-308l5,-362c5,-392 14,-480 63,-627c37,-111 82,-189 145,-252c108,-108 249,-155 501,-168c144,-7 160,-10 215,-37c83,-41 116,-92 121,-185c6,-92 -15,-146 -75,-198c-75,-67 -116,-75 -363,-75c-177,0 -235,4 -330,22c-249,46 -407,125 -545,273c-168,178 -262,444 -295,826c-7,84 -10,427 -8,1008l3,880l27,50c67,127 208,191 340,155z"></path></g></g></g></svg>